#!OML:ASF E:\acrobat2\Project_11_07_03\Capture day 1\Session 1\Acrobat.ASF
:FULLY-SPECIFIED
:DEGREES
339
root 10.6833 7.72058 -25.7454 32.8094 -13.2697 -3.83411
lowerback 37.3188 1.23061 2.07427
upperback 15.757 2.04131 4.70053
thorax -1.27642 0.68831 3.1744
lowerneck 4.56381 -0.169072 6.10049
upperneck -30.1665 -1.52352 -7.1064
head -10.4336 -0.705772 -3.45931
rclavicle -2.66371e-014 -3.27995e-015
rhumerus 45.8776 17.2128 -72.9171
rradius 48.3643
rwrist 35.9788
rhand -30.15 -75.7316
rfingers 7.12502
rthumb -3.46231 105.683
lclavicle -2.66371e-014 -3.27995e-015
lhumerus 59.1955 9.94265 58.9134
lradius 66.4037
lwrist 20.3452
lhand -34.6405 -6.76934
lfingers 7.12502
lthumb -7.79777 23.0669
rfemur -116.989 -38.047 31.9155
rtibia 28.8983
rfoot -206.443 -12.4598
rtoes -16.9707
lfemur -130.725 25.6879 -45.246
ltibia 24.2985
lfoot -206.172 16.644
ltoes 25.7947
340
root 10.6774 7.60792 -25.6174 32.9585 -13.1505 -4.13571
lowerback 37.7311 1.33305 2.10041
upperback 15.7237 2.15822 4.25885
thorax -1.42314 0.765872 2.65466
lowerneck 4.84565 -0.535346 6.97596
upperneck -30.9678 -1.88904 -6.83629
head -10.8357 -1.02011 -3.50226
rclavicle 1.98785e-015 -4.7758e-014
rhumerus 43.6821 16.4099 -75.2963
rradius 50.7355
rwrist 34.507
rhand -32.0315 -74.9261
rfingers 7.12502
rthumb -5.27914 104.84
lclavicle 1.98785e-015 -4.7758e-014
lhumerus 61.4791 10.7812 57.6751
lradius 63.4197
lwrist 18.4676
lhand -34.6255 -6.70838
lfingers 7.12502
lthumb -7.78332 23.1284
rfemur -116.37 -38.7112 31.1691
rtibia 28.2761
rfoot -205.512 -13.4067
rtoes -17.0745
lfemur -130.766 25.7924 -45.1996
ltibia 23.0773
lfoot -206.746 16.3595
ltoes 25.5672
341
root 10.6702 7.52252 -25.4795 33.1865 -12.9839 -4.43545
lowerback 38.2842 1.38817 2.18106
upperback 15.5451 2.24396 3.78316
thorax -1.61855 0.829442 2.10343
lowerneck 5.20438 -0.910638 7.86025
upperneck -31.9378 -2.23161 -6.47677
head -11.3312 -1.34394 -3.51638
rclavicle 9.14409e-015 6.11263e-015
rhumerus 41.9645 15.7638 -77.3816
rradius 52.4553
rwrist 32.6338
rhand -34.241 -76.1433
rfingers 7.12502
rthumb -7.41219 105.993
lclavicle 9.14409e-015 6.11263e-015
lhumerus 63.708 11.5772 56.605
lradius 60.3483
lwrist 16.3861
lhand -34.8395 -6.80124
lfingers 7.12502
lthumb -7.98986 23.0277
rfemur -115.49 -39.3927 30.2772
rtibia 27.9349
rfoot -204.422 -14.501
rtoes -17.225
lfemur -130.591 25.9509 -44.9784
ltibia 22.0844
lfoot -207.131 16.2124
ltoes 25.1224
342
root 10.6617 7.46706 -25.3303 33.5128 -12.7729 -4.73624
lowerback 38.7459 1.35808 2.36917
upperback 15.441 2.25157 3.21294
thorax -1.84027 0.869075 1.39794
lowerneck 5.60234 -1.25248 8.76174
upperneck -32.9984 -2.45162 -5.95687
head -11.878 -1.64225 -3.48251
rclavicle 7.15625e-015 -2.48232e-014
rhumerus 40.6558 15.1679 -79.4225
rradius 53.6134
rwrist 31.3464
rhand -35.905 -77.3333
rfingers 7.12502
rthumb -9.01811 107.121
lclavicle 7.15625e-015 -2.48232e-014
lhumerus 65.9734 12.4585 55.3911
lradius 57.1608
lwrist 14.3787
lhand -35.2447 -6.97708
lfingers 7.12502
lthumb -8.38093 22.8366
rfemur -114.342 -40.0666 29.2515
rtibia 27.9059
rfoot -203.126 -15.7622
rtoes -17.1343
lfemur -130.227 26.1531 -44.6081
ltibia 21.3477
lfoot -207.397 16.0712
ltoes 24.1771
343
root 10.6511 7.44326 -25.1695 33.9528 -12.5385 -5.02849
lowerback 39.2174 1.2889 2.58499
upperback 15.3055 2.21965 2.58096
thorax -2.09494 0.8936 0.62679
lowerneck 5.98575 -1.53827 9.66693
upperneck -34.0681 -2.53897 -5.36748
head -12.4334 -1.89974 -3.43064
rclavicle 5.92378e-014 2.97183e-014
rhumerus 39.597 14.5662 -81.3194
rradius 54.4223
rwrist 31.0425
rhand -36.6593 -78.8339
rfingers 7.12502
rthumb -9.74591 108.588
lclavicle 5.92378e-014 2.97183e-014
lhumerus 68.2375 13.3674 54.1954
lradius 53.927
lwrist 12.3675
lhand -35.7883 -7.18023
lfingers 7.12502
lthumb -8.90554 22.6118
rfemur -112.938 -40.6887 28.1065
rtibia 28.2084
rfoot -201.597 -17.172
rtoes -16.5339
lfemur -129.709 26.3915 -44.1475
ltibia 20.87
lfoot -207.572 15.919
ltoes 22.9188
344
root 10.6385 7.45122 -24.9966 34.5118 -12.2952 -5.31025
lowerback 39.6904 1.20993 2.77739
upperback 15.1408 2.16637 1.91173
thorax -2.38314 0.90763 -0.164266
lowerneck 6.3125 -1.77931 10.5539
upperneck -35.0973 -2.52631 -4.73779
head -12.9702 -2.12567 -3.36307
rclavicle -1.49089e-014 1.81391e-014
rhumerus 38.6493 13.9205 -83.0409
rradius 55.0423
rwrist 31.7216
rhand -36.4361 -79.8123
rfingers 7.12502
rthumb -9.53056 109.577
lclavicle -1.49089e-014 1.81391e-014
lhumerus 70.4672 14.2625 53.1098
lradius 50.725
lwrist 10.3537
lhand -36.3784 -7.28839
lfingers 7.12502
lthumb -9.47495 22.4786
rfemur -111.284 -41.2186 26.8601
rtibia 28.8476
rfoot -199.858 -18.687
rtoes -15.2853
lfemur -129.081 26.6449 -43.6519
ltibia 20.6794
lfoot -207.683 15.6312
ltoes 21.2713
